HIERARCHY
ROOT Hips
{
	OFFSET 0.000000 0.000000 0.000000
	CHANNELS 6 Xposition Yposition Zposition Xrotation Yrotation Zrotation
	JOINT LeftUpLeg_virtual
	{
		OFFSET 0.000000 0.000000 0.000000
		CHANNELS 3 Xrotation Yrotation Zrotation
		JOINT LeftUpLeg
		{
			OFFSET 10.205400 -3.823500 0.155100
			CHANNELS 3 Xrotation Yrotation Zrotation
			JOINT LeftLeg
			{
				OFFSET 0.708757 -12.982077 0.567790
				CHANNELS 3 Xrotation Yrotation Zrotation
				JOINT LeftFoot
				{
					OFFSET -0.708756 -10.717838 -2.184338
					CHANNELS 3 Xrotation Yrotation Zrotation
					JOINT LeftToeBase
					{
						OFFSET 0.108149 -7.191104 7.560241
						CHANNELS 3 Xrotation Yrotation Zrotation
						JOINT LeftToe_End
						{
							OFFSET 0.070230 0.081724 4.490308
							CHANNELS 3 Xrotation Yrotation Zrotation
							End Site
							{
								OFFSET 0 0 0
							}
						}
					}
				}
			}
		}
	}
	JOINT RightUpLeg_virtual
	{
		OFFSET 0.000000 0.000000 0.000000
		CHANNELS 3 Xrotation Yrotation Zrotation
		JOINT RightUpLeg
		{
			OFFSET -10.205400 -3.823500 0.005500
			CHANNELS 3 Xrotation Yrotation Zrotation
			JOINT RightLeg
			{
				OFFSET -0.708756 -12.982134 0.610632
				CHANNELS 3 Xrotation Yrotation Zrotation
				JOINT RightFoot
				{
					OFFSET 0.708754 -10.717769 -1.945823
					CHANNELS 3 Xrotation Yrotation Zrotation
					JOINT RightToeBase
					{
						OFFSET -0.108140 -7.191069 7.372968
						CHANNELS 3 Xrotation Yrotation Zrotation
						JOINT RightToe_End
						{
							OFFSET -0.070227 0.081735 4.479403
							CHANNELS 3 Xrotation Yrotation Zrotation
							End Site
							{
								OFFSET 0 0 0
							}
						}
					}
				}
			}
		}
	}
	JOINT Spine_virtual
	{
		OFFSET 0.000000 0.000000 0.000000
		CHANNELS 3 Xrotation Yrotation Zrotation
		JOINT Spine
		{
			OFFSET 0.000000 6.876099 0.125700
			CHANNELS 3 Xrotation Yrotation Zrotation
			JOINT Spine1
			{
				OFFSET 0.000000 5.730043 0.104720
				CHANNELS 3 Xrotation Yrotation Zrotation
				JOINT Spine1_split
				{
					OFFSET 0.000000 5.730043 0.104720
					CHANNELS 3 Xrotation Yrotation Zrotation
					JOINT Spine2
					{
						OFFSET 0.000000 5.730043 0.104720
						CHANNELS 3 Xrotation Yrotation Zrotation
						JOINT Neck_virtual
						{
							OFFSET 0.000000 0.000000 0.000000
							CHANNELS 3 Xrotation Yrotation Zrotation
							JOINT Neck
							{
								OFFSET 0.000000 10.314075 0.188496
								CHANNELS 3 Xrotation Yrotation Zrotation
								JOINT Head
								{
									OFFSET 0.000000 7.643700 -2.377400
									CHANNELS 3 Xrotation Yrotation Zrotation
									JOINT HeadTop_End
									{
										OFFSET 0.000000 43.788605 -13.619600
										CHANNELS 3 Xrotation Yrotation Zrotation
										End Site
										{
											OFFSET 0 0 0
										}
									}
								}
							}
						}
						JOINT LeftShoulder_virtual
						{
							OFFSET 0.000000 0.000000 0.000000
							CHANNELS 3 Xrotation Yrotation Zrotation
							JOINT LeftShoulder
							{
								OFFSET 2.196100 4.412489 0.087492
								CHANNELS 3 Xrotation Yrotation Zrotation
								JOINT LeftShoulder_split
								{
									OFFSET 2.196100 4.412489 0.087492
									CHANNELS 3 Xrotation Yrotation Zrotation
									JOINT LeftArm
									{
										OFFSET 8.771219 -2.981674 -0.026999
										CHANNELS 3 Xrotation Yrotation Zrotation
										JOINT LeftForeArm
										{
											OFFSET 8.512804 0.000000 -0.000000
											CHANNELS 3 Xrotation Yrotation Zrotation
											JOINT LeftHand
											{
												OFFSET 18.484802 0.000000 -0.000000
												CHANNELS 3 Xrotation Yrotation Zrotation
												End Site
												{
													OFFSET 0 0 0
												}
											}
										}
									}
								}
							}
						}
						JOINT RightShoulder_virtual
						{
							OFFSET 0.000000 0.000000 0.000000
							CHANNELS 3 Xrotation Yrotation Zrotation
							JOINT RightShoulder
							{
								OFFSET -2.196100 4.412496 0.070690
								CHANNELS 3 Xrotation Yrotation Zrotation
								JOINT RightShoulder_split
								{
									OFFSET -2.196100 4.412496 0.070690
									CHANNELS 3 Xrotation Yrotation Zrotation
									JOINT RightArm
									{
										OFFSET -8.771282 -2.981682 -0.094208
										CHANNELS 3 Xrotation Yrotation Zrotation
										JOINT RightForeArm
										{
											OFFSET -8.494598 0.000000 0.000000
											CHANNELS 3 Xrotation Yrotation Zrotation
											JOINT RightHand
											{
												OFFSET -18.483803 0.000000 0.000001
												CHANNELS 3 Xrotation Yrotation Zrotation
												End Site
												{
													OFFSET 0 0 0
												}
											}
										}
									}
								}
							}
						}
					}
				}
			}
		}
	}
}
MOTION
Frames: 4
Frame Time: 0.03333333
-1.801967 16.169548 -0.555134 0.000000 0.000000 0.000000 -176.357410 39.637521 170.929213 -86.350147 -25.138501 21.310692 121.043684 -12.882231 3.955112 -28.531679 26.960485 -22.360009 2.231817 -6.249192 3.741279 0.000000 0.000000 0.000000 -175.874858 42.289103 169.069694 -48.738584 21.808333 -15.506580 107.601878 6.002722 -3.329127 -33.074194 -29.014073 42.132032 -0.419584 5.945562 -28.900245 0.000000 0.000000 0.000000 -178.521132 40.269146 173.943990 7.729010 1.251545 -5.560579 6.438357 0.308065 -3.516681 0.092880 0.143614 -0.001741 0.000000 0.000000 0.000000 9.624834 3.572411 -2.786843 -11.015000 12.458454 12.662222 -13.970006 28.758911 -17.987672 0.000000 0.000000 0.000000 6.472127 2.214771 -4.020837 1.194709 -12.599127 -7.233777 -1.570137 -4.335807 -3.299840 -8.078409 -10.339488 -29.398674 58.765930 -36.668226 18.714616 0.000000 0.000000 0.000000 8.379673 1.935044 -2.826678 -4.979621 -8.063087 15.494037 -25.532427 -11.506131 5.244690 25.634234 3.236265 42.076393 19.042805 68.928466 12.728839 0.000000 0.000000 0.000000 
-1.805101 16.165230 -0.557758 0.000000 0.000000 0.000000 -176.370251 39.628163 170.938748 -86.381833 -25.154642 21.294448 121.057317 -12.875032 3.956272 -28.503180 26.949741 -22.402447 2.209265 -6.250247 3.751946 0.000000 0.000000 0.000000 -175.886032 42.285175 169.077358 -48.743747 21.810052 -15.498437 107.604023 6.007854 -3.337151 -33.085245 -29.018755 42.136643 -0.431058 5.950764 -28.899729 0.000000 0.000000 0.000000 -178.533208 40.263911 173.952419 7.715646 1.248052 -5.559466 6.439096 0.310593 -3.513743 0.091473 0.140737 -0.002896 0.000000 0.000000 0.000000 9.625374 3.575501 -2.787025 -10.988181 12.470750 12.666688 -13.938907 28.768876 -18.010813 0.000000 0.000000 0.000000 6.473642 2.214926 -4.018284 1.191357 -12.650256 -7.235808 -1.552537 -4.348449 -3.319645 -8.127309 -10.361476 -29.448139 58.777234 -36.639904 18.708122 0.000000 0.000000 0.000000 8.379963 1.937351 -2.823493 -4.972350 -8.073945 15.492139 -25.523339 -11.504345 5.230619 25.663232 3.228014 42.110691 19.034072 68.862835 12.730389 0.000000 0.000000 0.000000 
-1.811661 16.159622 -0.559042 0.000000 0.000000 0.000000 -176.392408 39.602806 170.947750 -86.421393 -25.178514 21.291621 121.067357 -12.881550 3.947446 -28.503993 26.918669 -22.396974 2.172554 -6.250751 3.767670 0.000000 0.000000 0.000000 -175.907192 42.276170 169.088723 -48.724527 21.808073 -15.500506 107.590636 6.016519 -3.343324 -33.097939 -29.033464 42.151266 -0.418011 5.949576 -28.904845 0.000000 0.000000 0.000000 -178.549778 40.246856 173.951039 7.693547 1.249956 -5.570842 6.437704 0.320010 -3.504401 0.091135 0.140592 -0.004151 0.000000 0.000000 0.000000 9.623336 3.584808 -2.779483 -10.950157 12.485383 12.682092 -13.871375 28.768648 -18.070512 0.000000 0.000000 0.000000 6.467647 2.222345 -4.007862 1.187095 -12.733403 -7.247118 -1.545499 -4.342401 -3.338182 -8.141671 -10.395296 -29.472669 58.810374 -36.642940 18.737938 0.000000 0.000000 0.000000 8.378000 1.945476 -2.813973 -4.959388 -8.115499 15.476022 -25.522469 -11.476580 5.214204 25.693944 3.233382 42.159766 19.032824 68.727337 12.725658 0.000000 0.000000 0.000000 
-1.820633 16.154545 -0.557472 0.000000 0.000000 0.000000 -176.417858 39.566347 170.952340 -86.469450 -25.210215 21.301704 121.073340 -12.897816 3.928032 -28.526615 26.872987 -22.344423 2.158343 -6.247933 3.773212 0.000000 0.000000 0.000000 -175.934745 42.260054 169.100731 -48.678796 21.797364 -15.514230 107.566081 6.027240 -3.347606 -33.104537 -29.058449 42.185287 -0.393601 5.945427 -28.915186 0.000000 0.000000 0.000000 -178.571293 40.217937 173.945507 7.666987 1.257783 -5.589691 6.436962 0.336378 -3.489414 0.091492 0.141280 -0.004956 0.000000 0.000000 0.000000 9.618880 3.600795 -2.765136 -10.908240 12.497959 12.709193 -13.784341 28.750828 -18.154938 0.000000 0.000000 0.000000 6.458917 2.237039 -3.991597 1.183011 -12.834847 -7.267312 -1.542819 -4.318856 -3.348796 -8.114022 -10.423002 -29.455580 58.849128 -36.671999 18.789476 0.000000 0.000000 0.000000 8.375836 1.959671 -2.799818 -4.942706 -8.185706 15.444055 -25.521203 -11.431604 5.191303 25.703496 3.260845 42.217328 19.036734 68.534070 12.715324 0.000000 0.000000 0.000000 
